<svg xmlns="http://www.w3.org/2000/svg" width="24" height="24" viewBox="0 0 24 24">
    <symbol id="Home" viewBox="0 0 24 24">
        <path d="m21.743 12.331-9-10c-.379-.422-1.107-.422-1.486 0l-9 10a.998.998 0 0 0-.17 1.076c.16.361.518.593.913.593h2v7a1 1 0 0 0 1 1h3a1 1 0 0 0 1-1v-4h4v4a1 1 0 0 0 1 1h3a1 1 0 0 0 1-1v-7h2a.998.998 0 0 0 .743-1.669z" fill="currentColor"/>
    </symbol>
    <symbol id="Accounts" viewBox="0 0 24 24">
        <path d="M6 22h12a2 2 0 0 0 2-2V4a2 2 0 0 0-2-2H6a2 2 0 0 0-2 2v16a2 2 0 0 0 2 2zm3-3H7v-2h2v2zm0-4H7v-2h2v2zm0-4H7V9h2v2zm4 8h-2v-2h2v2zm0-4h-2v-2h2v2zm0-4h-2V9h2v2zm4 8h-2v-6h2v6zm0-8h-2V9h2v2zM6 4h12v3H6V4z" fill="currentColor"/>
    </symbol>
    <symbol id="Stocks" viewBox="0 0 24 24">
        <path d="M19.15 8a2 2 0 0 0-1.72-1H15V5a1 1 0 0 0-1-1H4a2 2 0 0 0-2 2v10a2 2 0 0 0 1 1.73 3.49 3.49 0 0 0 7 .27h3.1a3.48 3.48 0 0 0 6.9 0 2 2 0 0 0 2-2v-3a1.07 1.07 0 0 0-.14-.52zM15 9h2.43l1.8 3H15zM6.5 19A1.5 1.5 0 1 1 8 17.5 1.5 1.5 0 0 1 6.5 19zm10 0a1.5 1.5 0 1 1 1.5-1.5 1.5 1.5 0 0 1-1.5 1.5z" fill="currentColor"/>
    </symbol>
    <symbol id="LoyaltyCustomers" viewBox="0 0 24 24">
        <circle cx="12" cy="4" r="2" fill="currentColor"/>
        <path d="M15 22V9h5V7H4v2h5v13h2v-7h2v7z" fill="currentColor"/>
    </symbol>
</svg>